<?xml version="1.0" encoding="utf-8"?>
<!-- Generator: Adobe Illustrator 13.0.0, SVG Export Plug-In . SVG Version: 6.00 Build 14948)  -->
<!DOCTYPE svg PUBLIC "-//W3C//DTD SVG 1.1 Tiny//EN" "http://www.w3.org/Graphics/SVG/1.1/DTD/svg11-tiny.dtd">
<svg version="1.1" baseProfile="tiny" id="Layer_1" xmlns="http://www.w3.org/2000/svg" xmlns:xlink="http://www.w3.org/1999/xlink"
	 x="0px" y="0px" width="256px" height="256px" viewBox="-284.358 -28.414 256 256" xml:space="preserve">
<circle fill="#1E9142" cx="-69.328" cy="76.751" r="16.07"/>
<circle fill="#1A7C39" cx="-184.801" cy="43.837" r="21.959"/>
<path fill="#2CD05F" d="M-131.966,130.894c0.264,0.004,0.528,0.01,0.794,0.01c24.102,0,43.64-19.539,43.64-43.642
	c0-24.102-19.538-43.639-43.64-43.639c-24.104,0-43.642,19.537-43.642,43.639c0,2.476,0.208,4.904,0.604,7.266
	C-170.792,114.917-153.238,130.514-131.966,130.894z"/>
<circle fill="#1A7C39" cx="-81.387" cy="30.297" r="29.246"/>
<circle fill="#27BB55" cx="-234.43" cy="56.271" r="26.143"/>
<circle fill="#1E9142" cx="-187.86" cy="-3.363" r="22.051"/>
<circle fill="#23A64C" cx="-139.109" cy="15.424" r="26.949"/>
<circle fill="#2CD05F" cx="-214.23" cy="21.179" r="11.3"/>
<path fill="#B2EDC5" d="M-129.268,213.103c0,0-7.353-20.313-7.353-57.41c0-7.642,1.113-14.455,2.875-20.462
	c-22.583-0.706-41.134-17.347-44.776-39.073c-0.029-0.178-0.055-0.356-0.082-0.534c-0.189-1.214-0.333-2.442-0.429-3.687
	c-0.533,1.243-1.198,2.413-1.971,3.5h0.001c-0.294,0.411-0.602,0.813-0.927,1.2c-2.843,3.385-6.86,5.756-11.423,6.501
	c7.137,10.134,16.295,28.229,14.25,52.555c-3.268,38.862-5.718,57.41-5.718,57.41s-5.72,11.483,26.144,11.483
	C-126.816,224.586-129.268,213.103-129.268,213.103z"/>
<path fill="#23A64C" d="M-185.977,94.493c2.406-2.866,3.852-6.537,3.853-10.571c-0.001-4.549-1.836-8.645-4.816-11.628
	c-2.982-2.978-7.078-4.813-11.626-4.814c-4.549,0.001-8.644,1.837-11.627,4.814c-2.979,2.984-4.815,7.08-4.816,11.628
	c0.001,4.547,1.837,8.643,4.816,11.626c2.983,2.98,7.078,4.816,11.627,4.818c0.528-0.001,1.056-0.03,1.584-0.078
	C-192.574,99.867-188.68,97.708-185.977,94.493z"/>
</svg>
